<svg xmlns="http://www.w3.org/2000/svg" viewBox="0 0 128 128" role="img" aria-labelledby="title desc" shape-rendering="crispEdges">
  <title id="title">Wizard Claude pet (dark style 20)</title>
  <desc id="desc">A tiny orange square pet with a small wizard hat and wand.  A dark-themed animated version with a rotating, twinkling star and blinking eyes.</desc>
  <!-- Wizard hat and head -->
  <path d="M54 8h20v10h8v10h8v14H38V28h8V18h8V8Z" fill="#0b0916" stroke="#06050c" stroke-width="4"/>
  <rect x="57" y="20" width="14" height="6" fill="#272010"/>
  <!-- Ears -->
  <rect x="39" y="37" width="11" height="20" rx="3" fill="#25180f" stroke="#180e09" stroke-width="4"/>
  <rect x="78" y="37" width="11" height="20" rx="3" fill="#25180f" stroke="#180e09" stroke-width="4"/>
  <!-- Body -->
  <rect x="31" y="48" width="66" height="50" rx="4" fill="#25170e" stroke="#170e09" stroke-width="4"/>
  <!-- Left arm -->
  <rect x="22" y="61" width="15" height="18" rx="3" fill="#25180f" stroke="#180e09" stroke-width="4"/>
  <!-- Right arm -->
  <rect x="92" y="57" width="14" height="17" rx="3" fill="#25180f" stroke="#180e09" stroke-width="4"/>
  <!-- Wand shaft -->
  <rect x="105" y="42" width="5" height="44" fill="#100b09" transform="rotate(20 107.5 64)"/>
  <!-- Wand star: now animated to rotate and twinkle -->
  <rect x="101" y="36" width="13" height="13" fill="#272010" transform="rotate(20 107.5 42.5)">
    <!-- Animate colour to create a twinkling effect -->
    <animate attributeName="fill" values="#272010;#3a3018;#272010" dur="2s" repeatCount="indefinite"/>
    <!-- Animate rotation about the centre of the star -->
    <animateTransform attributeName="transform" type="rotate" from="20 107.5 42.5" to="380 107.5 42.5" dur="4s" repeatCount="indefinite"/>
  </rect>
  <!-- Left eye: height and y coordinated to simulate blinking -->
  <rect x="44" y="64" width="9" height="18" rx="2" fill="#040404">
    <animate attributeName="height" values="18;2;18" keyTimes="0;0.5;1" dur="3s" repeatCount="indefinite"/>
    <animate attributeName="y" values="64;71;64" keyTimes="0;0.5;1" dur="3s" repeatCount="indefinite"/>
  </rect>
  <!-- Right eye: mirror blink animation -->
  <rect x="76" y="64" width="9" height="18" rx="2" fill="#040404">
    <animate attributeName="height" values="18;2;18" keyTimes="0;0.5;1" dur="3s" begin="0.2s" repeatCount="indefinite"/>
    <animate attributeName="y" values="64;71;64" keyTimes="0;0.5;1" dur="3s" begin="0.2s" repeatCount="indefinite"/>
  </rect>
  <!-- Mouth -->
  <rect x="58" y="88" width="13" height="4" fill="#130b08"/>
  <!-- Feet -->
  <rect x="47" y="97" width="7" height="14" fill="#22130c"/>
  <rect x="62" y="97" width="7" height="14" fill="#22130c"/>
  <rect x="77" y="97" width="7" height="14" fill="#22130c"/>
</svg>