<svg xmlns="http://www.w3.org/2000/svg" viewBox="0 0 128 128" role="img" aria-labelledby="title desc" shape-rendering="crispEdges"><title id="title">Animated pink girl Claude bow pet</title><desc id="desc">A tiny pink square pet with a wiggling bow.</desc><style>.bow{animation:bw .9s steps(3) infinite;transform-origin:60px 39px}@keyframes bw{0%,100%{transform:rotate(0)}50%{transform:rotate(7deg)}}</style><rect x="37" y="22" width="12" height="30" rx="3" fill="#f7a1bd" stroke="#a94f72" stroke-width="4"/><rect x="79" y="22" width="12" height="30" rx="3" fill="#f7a1bd" stroke="#a94f72" stroke-width="4"/><g class="bow"><path d="M39 31h15v-8h12v8h15v16H66v8H54v-8H39V31Z" fill="#ff6fa8" stroke="#9d315d" stroke-width="4"/></g><rect x="33" y="45" width="62" height="53" rx="4" fill="#f59ab9" stroke="#9f4d6d" stroke-width="4"/><rect x="45" y="36" width="38" height="14" fill="#f59ab9"/><rect x="20" y="65" width="17" height="18" rx="3" fill="#f7a1bd" stroke="#a94f72" stroke-width="4"/><rect x="91" y="65" width="17" height="18" rx="3" fill="#f7a1bd" stroke="#a94f72" stroke-width="4"/><rect x="44" y="62" width="9" height="18" rx="2" fill="#242124"/><rect x="76" y="62" width="9" height="18" rx="2" fill="#242124"/><rect x="57" y="88" width="14" height="4" fill="#8a3b58"/><rect x="47" y="97" width="7" height="14" fill="#e978a0"/><rect x="62" y="97" width="7" height="14" fill="#e978a0"/><rect x="77" y="97" width="7" height="14" fill="#e978a0"/></svg>
